<?xml version="1.0" encoding="UTF-8"?>
<svg width="563px" height="118px" viewBox="0 0 563 118" version="1.1" xmlns="http://www.w3.org/2000/svg" xmlns:xlink="http://www.w3.org/1999/xlink">
    <title>Logo</title>
    <defs>
        <radialGradient cx="50%" cy="0%" fx="50%" fy="0%" r="100%" id="radialGradient-1">
            <stop stop-color="#000000" stop-opacity="0.203464674" offset="0%"></stop>
            <stop stop-color="#000000" stop-opacity="0.495867301" offset="100%"></stop>
        </radialGradient>
    </defs>
    <g id="Logo" stroke="none" stroke-width="1" fill="none" fill-rule="evenodd">
        <g transform="translate(1.000000, 8.000000)">
            <path d="M51,0 C22.8334778,0 0,22.8334778 0,51 C0,79.1665222 22.8334778,102 51,102 C79.1665222,102 102,79.1665222 102,51 C102,22.8334778 79.1665222,0 51,0 Z M51,7.74425574 C74.8894879,7.74425574 94.2557443,27.1105121 94.2557443,51 C94.2557443,74.8894879 74.8894879,94.2557443 51,94.2557443 C27.1105121,94.2557443 7.74425574,74.8894879 7.74425574,51 C7.74425574,27.1105121 27.1105121,7.74425574 51,7.74425574 Z" id="Oval" fill="url(#radialGradient-1)" fill-rule="nonzero"></path>
            <circle id="Oval-Copy" fill="#5983F0" cx="51.5" cy="51.5" r="23.5"></circle>
        </g>
        <g id="bibleStrong" transform="translate(129.400000, 22.725698)" fill="#000000" fill-rule="nonzero">
            <path d="M41.65,38.1343017 C40.29,25.8943017 31.11,19.9443017 23.205,19.4343017 C17.68,19.0943017 11.645,21.2193017 8.245,25.7243017 L8.245,0.734301688 L0.17,0.649301688 L1.42108547e-14,62.6993017 L7.565,62.6143017 L7.99,57.6843017 C10.455,60.9993017 15.895,63.5493017 21.505,63.8043017 C29.58,64.2293017 43.775,57.2593017 41.65,38.1343017 Z M20.655,56.8343017 C13.005,56.5793017 7.65,50.4593017 7.65,41.6193017 C7.65,31.5043017 14.62,26.9143017 20.995,26.5743017 C27.795,26.2343017 33.83,32.1843017 33.83,41.7893017 C33.83,50.7143017 28.05,57.0893017 20.655,56.8343017 Z M54.485,12.2093017 C57.63,12.2093017 60.18,9.82930169 60.18,6.59930169 C60.18,3.36930169 57.63,0.989301688 54.485,0.989301688 C51.255,0.989301688 48.705,3.36930169 48.705,6.59930169 C48.705,9.82930169 51.255,12.2093017 54.485,12.2093017 Z M58.395,62.8693017 L58.395,20.3693017 L50.405,20.3693017 L50.405,62.8693017 L58.395,62.8693017 Z M108.63,38.1343017 C107.27,25.8943017 98.09,19.9443017 90.185,19.4343017 C84.66,19.0943017 78.625,21.2193017 75.225,25.7243017 L75.225,0.734301688 L67.15,0.649301688 L66.98,62.6993017 L74.545,62.6143017 L74.97,57.6843017 C77.435,60.9993017 82.875,63.5493017 88.485,63.8043017 C96.56,64.2293017 110.755,57.2593017 108.63,38.1343017 Z M87.635,56.8343017 C79.985,56.5793017 74.63,50.4593017 74.63,41.6193017 C74.63,31.5043017 81.6,26.9143017 87.975,26.5743017 C94.775,26.2343017 100.81,32.1843017 100.81,41.7893017 C100.81,50.7143017 95.03,57.0893017 87.635,56.8343017 Z M125.63,62.8693017 L125.63,0.819301688 L117.385,0.819301688 L117.385,62.8693017 L125.63,62.8693017 Z M154.955,63.6343017 C166.005,63.6343017 172.635,56.8343017 174.76,51.6493017 L174.76,51.6493017 L167.45,49.6943017 C165.58,53.2643017 161.755,57.1743017 154.105,56.9193017 C144.245,56.5793017 141.95,46.7193017 141.95,43.4043017 L141.95,43.4043017 L174.845,43.0643017 C176.12,27.4243017 166.005,19.4343017 154.785,19.4343017 C143.48,19.4343017 134.13,27.1693017 134.13,41.5343017 C134.13,53.6893017 141.355,63.6343017 154.955,63.6343017 Z M142.885,36.6893017 C143.395,31.9293017 147.135,27.3393017 153.085,26.7443017 C162.35,25.8093017 166.515,32.6093017 166.515,36.6043017 L166.515,36.6043017 L142.885,36.6893017 Z" id="bible" fill-opacity="0.767974213"></path>
            <path d="M181.73,46.7193017 C183.6,58.1093017 193.885,64.4843017 205.105,63.8893017 C216.325,63.2943017 224.995,57.0043017 224.74,45.6993017 C224.485,34.3093017 216.58,30.3143017 202.47,25.1293017 C199.325,24.1093017 194.735,21.8143017 193.97,18.5843017 C193.29,16.2893017 193.375,12.1243017 198.9,9.99930169 C204.68,7.70430169 211.14,9.14930169 214.03,16.3743017 L214.03,16.3743017 L222.7,12.3793017 C217.94,1.07430169 206.975,-1.39069831 197.965,0.649301688 C188.955,2.68930169 184.365,9.48930169 184.025,16.1193017 C183.6,23.5993017 188.955,30.3143017 196.945,32.9493017 C208.59,36.7743017 215.39,39.9193017 214.795,46.5493017 C214.37,52.4143017 209.015,55.5593017 202.555,54.7943017 C197.795,54.1993017 192.61,50.2893017 190.995,43.4893017 L190.995,43.4893017 L181.73,46.7193017 Z M258.4,61.8493017 L255.425,53.6893017 C253.64,54.7943017 249.985,54.9643017 248.03,52.7543017 C246.867674,51.4259296 246.678459,48.8811703 246.670287,43.2982717 L246.67,29.2093017 L256.955,29.2093017 L256.955,20.7093017 L246.755,20.7093017 L246.755,8.12930169 L237.66,8.12930169 L237.66,18.1593017 C237.66,20.0293017 237.32,20.7093017 234.855,20.7093017 L229.84,20.7093017 L229.84,29.2093017 L237.15,29.2093017 L237.15,49.9493017 C237.15,54.7943017 239.19,61.4243017 246.755,63.0393017 C251.77,64.1443017 255.085,63.1243017 258.4,61.8493017 Z M274.465,62.6143017 L274.465674,47.9122281 C274.475944,38.426581 274.642846,35.4653017 277.355,32.3543017 C280.585,28.6993017 286.705,27.9343017 290.105,29.5493017 L290.105,29.5493017 L292.74,21.1343017 C289.85,19.4343017 285.09,19.1793017 282.03,20.2843017 C277.865,21.8143017 275.825,23.8543017 274.465,27.1693017 L274.465,27.1693017 L274.465,20.9643017 L265.2,20.9643017 L265.2,62.5293017 L274.465,62.6143017 Z M316.795,64.1443017 C329.375,64.1443017 339.065,53.6893017 339.065,41.4493017 C339.065,29.2093017 329.375,19.2643017 316.795,19.2643017 C304.13,19.2643017 294.44,29.2093017 294.44,41.4493017 C294.44,53.6893017 304.13,64.1443017 316.795,64.1443017 Z M316.88,55.2193017 C310.42,55.2193017 304.3,50.1193017 304.3,41.5343017 C304.3,33.4593017 310.42,28.0193017 316.88,28.0193017 C323.425,28.0193017 329.46,33.4593017 329.46,41.5343017 C329.46,50.1193017 323.425,55.2193017 316.88,55.2193017 Z M354.535,62.6993017 L354.535,41.7043017 C354.535,32.6093017 359.38,28.3593017 363.12,28.2743017 C372.3,27.8493017 373.405,32.7793017 373.405,40.0893017 L373.405,62.6993017 L383.18,62.6993017 L383.18,40.5993017 C383.18,33.1193017 382.5,29.6343017 381.31,27.0843017 C379.27,22.8343017 374,18.4993017 364.99,19.6043017 C358.53,20.3693017 354.96,25.6393017 354.195,26.7443017 L354.195,20.7943017 L345.015,20.7943017 L345.015,62.6993017 L354.535,62.6993017 Z M390.32,69.1593017 C395.165,80.6343017 404.855,82.8443017 411.825,82.3343017 C425.425,81.3143017 431.8,71.6243017 431.8,59.4693017 C431.8,52.6245648 431.641066,41.2237338 431.615972,29.7002173 L431.613445,28.1634106 C431.613164,27.9072847 431.612956,27.6511955 431.612824,27.3951918 L431.612965,25.8605827 C431.614251,24.0723088 431.619561,22.2929859 431.63,20.5393017 L431.63,20.5393017 L422.535,20.4543017 L422.365,25.0443017 C410.55,13.0593017 390.66,21.2193017 389.215,38.4743017 C388.365,49.0993017 393.21,57.4293017 400.265,60.9143017 C406.47,64.0593017 415.99,64.5693017 422.28,57.1743017 C422.28,69.0743017 417.605,73.4943017 410.125,73.4943017 C405.365,73.4943017 401.965,70.8593017 399.67,66.6093017 L399.67,66.6093017 L390.32,69.1593017 Z M409.785,54.2843017 C403.75,54.2843017 398.65,48.5893017 398.65,41.2793017 C398.65,33.8843017 403.155,29.0393017 409.02,28.1893017 C414.885,27.4243017 422.195,31.7593017 422.195,41.2793017 C422.195,50.7993017 415.65,54.2843017 409.785,54.2843017 Z" id="Strong"></path>
        </g>
    </g>
</svg>