<?xml version="1.0" encoding="UTF-8"?>
<svg width="28px" height="20px" viewBox="0 0 28 20" version="1.1" xmlns="http://www.w3.org/2000/svg" xmlns:xlink="http://www.w3.org/1999/xlink">
    <title>noun_Book_3358105</title>
    <g id="Page-1" stroke="none" stroke-width="1" fill="none" fill-rule="evenodd">
        <g id="noun_Book_3358105" fill="#000000" fill-rule="nonzero">
            <g id="Group">
                <path d="M3.8,13.9 C3.8,13.9 8.2,13.2 13.5,17.9 L13.5,2.6 C13.2,2.4 12.8,2.1 12.4,1.8 C8.6,-0.5 4,0.1 4,0.1 C3.4,0.1 2.9,0.4 2.9,0.9 L2.9,13 C2.9,13.4 2.9,14 3.8,13.9 Z" id="Path"></path>
                <path d="M23.9,14.4 C24.8,14.4 24.8,14.2 24.8,13.8 L24.8,0.9 C24.8,0.5 24.3,0.1 23.7,0.1 C23.7,0.1 19.1,-0.4 15.4,1.9 C15.1,2.1 14.6,2.4 14.3,2.7 L14.3,18 C18.4,14 23.9,14.4 23.9,14.4 Z" id="Path"></path>
                <path d="M27.8,15.1 L27.8,1.6 C27.8,1.5 27.8,1.4 27.7,1.4 C27.7,1.4 27,0.9 26,1.3 L26,14.6 L26,14.6 L26,14.6 L26,14.7 C25.9,15.5 25.5,15.8 24.4,15.8 L24.4,15.8 L24.4,15.8 C24.4,15.8 24.3,15.8 24.1,15.8 C22.8,15.8 18.3,16.1 14.8,19.4 L14.4,19.8 L14.4,20 C14.5,20 14.6,19.9 14.6,19.9 L16,19.2 C21.3,17 25.9,17.2 25.9,17.2 C26.7,17.2 27.2,17 27.6,16.7 C27.8,16.3 27.9,15.8 27.8,15.1 Z" id="Path"></path>
                <path d="M4.1,15.3 C3.7,15.3 3.5,15.3 3.5,15.3 L3.5,15.3 L3.5,15.3 L3.5,15.3 C3,15.3 2.7,15.2 2.4,14.9 C2,14.5 2,14 2,13.7 L2,13.7 L2,1.2 C1,0.7 0.4,1.2 0.3,1.2 C0.2,1.2 0.1,1.3 0.1,1.4 L0.1,16 C0.1,16.7 0.7,17.1 1.6,17.1 C1.6,17.1 1.6,17.1 1.6,17.1 C1.7,17.1 7.2,16.9 12.3,19.4 L13.4,19.9 C13.5,19.9 13.5,20 13.6,20 L13.6,19.9 L13.2,19.5 C9.1,15.7 5.5,15.3 4.1,15.3 Z" id="Path"></path>
            </g>
        </g>
    </g>
</svg>